<svg width="508" height="508" viewBox="0 0 508 508" fill="none" xmlns="http://www.w3.org/2000/svg">
<circle cx="254" cy="254" r="254" fill="#261E4D"/>
<circle cx="254.651" cy="254.641" r="119.944" fill="#FAFAFA"/>
<path d="M92.7641 219.636C107.623 224.471 120.902 215.738 127.717 196.938C134.748 177.543 129.616 161.768 114.446 156.27C102.527 151.949 93.3349 156.34 84.3003 170.78L78.859 179.534C73.5402 187.782 69.4566 190.592 64.6348 188.844C58.8379 186.743 56.9551 179.931 59.8813 171.858C62.8467 163.678 68.9572 159.334 75.7632 161.188L81.3209 145.856C67.0824 141.001 53.566 149.035 46.9674 167.239C40.6438 184.684 45.6621 200.601 60.0733 205.825C71.5048 209.969 81.3914 205.523 89.7034 192.231L95.6167 182.851C101.147 174.19 105.319 171.472 110.412 173.319C116.155 175.4 118.166 182.872 115.004 191.594C111.862 200.263 105.201 205.449 98.4789 203.871L92.7641 219.636Z" fill="#FAFAFA"/>
<path d="M81.5294 404.913L112.521 370.421L124.74 381.401L131.203 374.208L98.0687 344.436L91.6057 351.629L103.796 362.583L72.8052 397.075L81.5294 404.913Z" fill="#FAFAFA"/>
<path d="M145.913 394.945L154.609 400.228C159.588 403.252 160.893 408.135 158.07 412.782C155.186 417.528 150.478 418.621 145.433 415.556L136.637 410.212L145.913 394.945ZM132.221 417.481L140.42 422.462L138.701 445.41L150.052 452.307L151.516 427.158C158.337 428.348 164.749 424.974 168.48 418.834C174.227 409.374 171.449 399.735 160.43 393.04L140.648 381.022L111.551 428.916L121.575 435.005L132.221 417.481Z" fill="#FAFAFA"/>
<path d="M213.761 469.721L225.989 472.144L217.757 413.383L204.234 410.704L174.256 461.893L186.066 464.233L192.898 451.73L212.212 455.557L213.761 469.721ZM208.588 422.494L208.855 422.547L211.442 446.457L197.08 443.612L208.588 422.494Z" fill="#FAFAFA"/>
<path d="M269.862 475.704L285.432 418.671L272.676 419.408L262.419 464.036L262.147 464.052L246.816 420.903L233.712 421.66L255.749 476.52L269.862 475.704Z" fill="#FAFAFA"/>
<path d="M345.287 447.092L321.363 455.618L316.617 442.302L339.188 434.258L336.164 425.771L313.593 433.815L309.056 421.085L332.98 412.558L329.734 403.449L294.762 415.913L313.574 468.701L348.547 456.237L345.287 447.092Z" fill="#FAFAFA"/>
<path d="M399.262 415.19L379.49 429.667L352.119 392.285L342.656 399.214L375.762 444.429L404.997 423.024L399.262 415.19Z" fill="#FAFAFA"/>
<path d="M404.272 398.717C411.39 406.477 422.076 405.752 432.304 396.978C442.856 387.925 445.071 376.967 437.99 368.715C432.427 362.23 425.577 361.761 415.491 367.242L409.398 370.577C403.544 373.654 400.216 373.951 397.966 371.328C395.26 368.174 396.412 363.552 400.804 359.785C405.255 355.966 410.28 355.442 413.659 358.785L422.001 351.628C415.253 344.062 404.66 344.298 394.756 352.795C385.265 360.937 382.937 371.941 389.663 379.781C394.999 386 402.274 386.667 411.555 381.62L418.133 378.075C424.248 374.824 427.597 374.612 429.974 377.383C432.654 380.507 431.359 385.558 426.614 389.63C421.898 393.676 416.271 394.512 412.849 391.359L404.272 398.717Z" fill="#FAFAFA"/>
<path d="M145.047 60.4472C124.827 74.5708 121.636 96.9734 136.816 118.705C151.963 140.39 174.095 145.105 194.315 130.982C214.488 116.891 217.725 94.4553 202.579 72.7706C187.399 51.0387 165.22 46.3566 145.047 60.4472ZM153.363 72.3525C164.512 64.5647 177.982 68.6526 187.981 82.9673C197.946 97.2348 197.115 111.241 185.966 119.029C174.769 126.85 161.333 122.809 151.367 108.542C141.368 94.2269 142.213 80.1403 153.363 72.3525Z" fill="#FAFAFA"/>
<path d="M259.028 115.283L268.25 61.6124L268.762 61.7002L297.876 121.959L312.075 124.398L326.157 42.4435L309.743 39.6231L300.57 93.0102L300.115 92.9321L271.009 32.9676L256.697 30.5083L242.615 112.463L259.028 115.283Z" fill="#FAFAFA"/>
<path d="M344.887 147.322L396.633 73.2127L381.123 62.3831L329.377 136.492L344.887 147.322Z" fill="#FAFAFA"/>
<path d="M394.749 205.82L404.416 221.591L460.198 153.473L449.507 136.031L363.521 154.869L372.857 170.1L393.366 164.965L408.633 189.875L394.749 205.82ZM441.036 152.645L441.247 152.989L417.78 179.876L406.427 161.353L441.036 152.645Z" fill="#FAFAFA"/>
<path d="M94.3488 273.424L77.0433 270.907L69.3072 255.214C69.0959 254.784 68.7483 254.437 68.3189 254.225C67.242 253.693 65.9334 254.136 65.3949 255.214L57.6589 270.907L40.3534 273.424C39.8763 273.492 39.4401 273.717 39.1061 274.058C38.7023 274.474 38.4798 275.032 38.4875 275.611C38.4952 276.191 38.7324 276.743 39.147 277.148L51.6677 289.363L48.7097 306.611C48.6403 307.012 48.6847 307.425 48.8377 307.802C48.9908 308.18 49.2465 308.506 49.5757 308.746C49.905 308.985 50.2947 309.127 50.7006 309.156C51.1065 309.185 51.5124 309.1 51.8722 308.91L67.3511 300.766L82.8299 308.91C83.2525 309.135 83.7433 309.21 84.2136 309.128C85.3995 308.923 86.197 307.798 85.9925 306.611L83.0344 289.363L95.5552 277.148C95.896 276.814 96.1209 276.377 96.1891 275.9C96.3731 274.706 95.5416 273.601 94.3488 273.424Z" fill="#FAFAFA"/>
<path d="M471.496 263.163L454.191 260.647L446.455 244.953C446.243 244.524 445.896 244.176 445.466 243.964C444.389 243.432 443.081 243.876 442.542 244.953L434.806 260.647L417.501 263.163C417.024 263.231 416.588 263.456 416.254 263.798C415.85 264.213 415.627 264.771 415.635 265.351C415.643 265.93 415.88 266.483 416.294 266.887L428.815 279.102L425.857 296.35C425.788 296.752 425.832 297.164 425.985 297.542C426.138 297.919 426.394 298.246 426.723 298.485C427.052 298.724 427.442 298.866 427.848 298.895C428.254 298.924 428.66 298.839 429.02 298.649L444.499 290.505L459.977 298.649C460.4 298.874 460.891 298.949 461.361 298.867C462.547 298.662 463.344 297.537 463.14 296.35L460.182 279.102L472.703 266.887C473.043 266.553 473.268 266.116 473.337 265.639C473.521 264.445 472.689 263.341 471.496 263.163Z" fill="#FAFAFA"/>
<path fill-rule="evenodd" clip-rule="evenodd" d="M179.304 254.983C182.581 258.822 188.29 261.983 194.281 263.274C199.593 264.416 199.411 264.416 215.381 264.532C224.664 264.614 230.39 264.714 231.185 264.846C236.58 265.64 239.112 267.146 240.783 270.539C241.627 272.243 241.908 273.7 242.074 277.241C242.256 280.932 242.074 284.291 241.61 285.797C240.601 289.007 237.953 293.095 236.116 294.253C234.643 295.197 236.149 295.147 203.747 295.147H173.909L173.512 295.561L173.099 295.958V306.731C173.099 316.463 173.112 317.807 173.516 318.232H244.225C244.298 318.208 244.396 318.18 244.506 318.15C246.658 317.587 248.859 316.561 251.838 314.741C254.618 313.036 256.124 311.911 257.977 310.124C263.819 304.48 267.046 297.381 268.353 287.204C268.899 282.818 268.932 282.255 268.833 278.598C268.568 268.669 267.36 262.778 264.266 256.257C262.296 252.137 259.831 249.075 256.488 246.576C252.864 243.862 249.488 242.356 244.755 241.314C240.27 240.304 240.601 240.337 224.4 240.205C209.489 240.089 206.924 239.99 204.789 239.444C201.778 238.699 199.477 236.382 198.683 233.337C198.021 230.756 197.889 222.945 198.484 220.843C199.444 217.417 202.82 213.231 205.336 212.37C205.815 212.205 209.886 212.155 222.993 212.122C232.376 212.089 240.154 212.072 240.303 212.072C240.535 212.072 240.551 211.973 240.419 211.361C240.237 210.467 240.32 189.268 240.518 188.854C240.651 188.589 239.591 188.573 219.419 188.589C202.406 188.606 197.889 188.656 196.73 188.838C193.685 189.301 189.813 191.022 185.858 193.653C182.366 196.003 179.983 198.204 177.732 201.233C174.174 206.015 172.056 211.675 171.195 218.692C171.063 219.833 170.881 221.273 170.782 221.919C170.451 224.368 170.649 230.59 171.212 234.744C172.271 242.687 175.316 250.316 179.304 254.983Z" fill="#A10C10"/>
<path fill-rule="evenodd" clip-rule="evenodd" d="M335.567 188.904C335.021 188.573 334.591 188.573 289.926 188.573C245.261 188.573 244.83 188.573 244.301 188.904C244.003 189.086 243.722 189.401 243.672 189.599C243.622 189.815 243.606 194.796 243.622 200.687C243.672 210.716 243.689 211.411 243.97 211.692C244.251 211.973 245.178 211.99 259.939 212.073C277.514 212.172 276.323 212.073 276.67 213.347C276.803 213.777 276.852 230.326 276.852 265.873V317.753L277.183 318.117L277.294 318.233H302.513L302.654 318.051L303.001 317.604V265.658C303.001 209.458 302.951 212.9 303.862 212.37C304.176 212.205 307.221 212.139 319.798 212.106C333.236 212.073 335.404 212.023 335.718 211.808L336.099 211.576V189.235L335.569 188.904H335.567Z" fill="#261E4C"/>
</svg>
